<svg width="80" height="80" viewBox="0 0 80 80" fill="none" xmlns="http://www.w3.org/2000/svg">
<g clip-path="url(#clip0)">
<path d="M40.975 54.8001C40.665 54.9351 40.33 55.0001 40 55.0001C39.67 55.0001 39.335 54.9351 39.025 54.8001L0 38.2751V75.0001C0 77.7601 2.24 80.0001 5 80.0001H75C77.76 80.0001 80 77.7601 80 75.0001V38.2751L40.975 54.8001Z" fill="#253992"/>
<path d="M78.85 24.25L70 18.65V5C70 2.25 67.75 0 65 0H15C12.25 0 10 2.25 10 5V18.65L1.15 24.25C0.45 24.7 0 25.5 0 26.35V32.85L15 39.2V5H65V39.2L80 32.85V26.35C80 25.5 79.55 24.7 78.85 24.25Z" fill="#253992"/>
<path d="M57.5 10H22.5C21.12 10 20 11.12 20 12.5C20 13.88 21.12 15 22.5 15H57.5C58.88 15 60 13.88 60 12.5C60 11.12 58.88 10 57.5 10Z" fill="#253992"/>
<path d="M57.5 20H22.5C21.12 20 20 21.12 20 22.5C20 23.88 21.12 25 22.5 25H57.5C58.88 25 60 23.88 60 22.5C60 21.12 58.88 20 57.5 20Z" fill="#253992"/>
<path d="M42.5 30H22.5C21.12 30 20 31.12 20 32.5C20 33.88 21.12 35 22.5 35H42.5C43.88 35 45 33.88 45 32.5C45 31.12 43.88 30 42.5 30Z" fill="#253992"/>
</g>
<defs>
<clipPath id="clip0">
<rect width="80" height="80" fill="white"/>
</clipPath>
</defs>
</svg>
