<svg width="80" height="80" viewBox="0 0 80 80" fill="none" xmlns="http://www.w3.org/2000/svg">
<path d="M73.1764 56.0892C72.0416 55.466 70.6167 55.8805 69.9938 57.0149C69.3705 58.1494 69.7848 59.5744 70.9194 60.1975C73.7113 61.7313 75.3125 63.4316 75.3125 64.8625C75.3125 66.6127 72.8328 69.3252 65.873 71.6897C58.9972 74.0259 49.8086 75.3123 40 75.3123C30.1914 75.3123 21.0028 74.0259 14.127 71.6897C7.16719 69.3253 4.6875 66.6127 4.6875 64.8625C4.6875 63.4316 6.28875 61.7313 9.08063 60.1974C10.2152 59.5742 10.6295 58.1492 10.0063 57.0147C9.38297 55.8803 7.95844 55.4658 6.82359 56.0891C3.71078 57.7992 0 60.7095 0 64.8625C0 68.0459 2.18938 72.5847 12.6191 76.1281C19.9678 78.6248 29.6919 79.9998 40 79.9998C50.3081 79.9998 60.0322 78.6248 67.3809 76.1281C77.8106 72.5847 80 68.0459 80 64.8625C80 60.7095 76.2892 57.7992 73.1764 56.0892Z" fill="#253992"/>
<path d="M22.3049 68.3016C27.0627 69.6457 33.3469 70.386 39.9999 70.386C46.6529 70.386 52.9371 69.6459 57.6949 68.3016C63.5157 66.6574 66.4671 64.2771 66.4671 61.2274C66.4671 58.1776 63.5157 55.7976 57.6949 54.1533C56.4027 53.7883 54.9974 53.4682 53.5033 53.1951C52.6919 54.5969 51.8418 56.0399 50.9529 57.5244C52.6066 57.7726 54.1593 58.0768 55.5693 58.436C59.853 59.5271 61.418 60.7554 61.7397 61.2276C61.4179 61.6999 59.8532 62.9282 55.5694 64.0191C51.5149 65.0518 46.2983 65.6409 40.8041 65.6935C40.538 65.7132 40.2699 65.7243 39.9999 65.7243C39.7297 65.7243 39.4618 65.7132 39.1955 65.6935C33.7013 65.6409 28.4847 65.0519 24.4302 64.0191C20.1465 62.9282 18.5816 61.6998 18.2599 61.2276C18.5816 60.7554 20.1466 59.5271 24.4304 58.436C25.8404 58.0769 27.393 57.7726 29.0469 57.5244C28.158 56.0401 27.3079 54.5968 26.4965 53.1951C25.0024 53.4683 23.5969 53.7883 22.3049 54.1533C16.4841 55.7976 13.5327 58.1777 13.5327 61.2274C13.5327 64.2771 16.4841 66.6573 22.3049 68.3016Z" fill="#253992"/>
<path d="M39.9999 61.0366C42.0863 61.0366 43.9815 59.9734 45.0699 58.1927C52.6965 45.715 61.7874 29.2703 61.7874 21.7873C61.7874 9.77375 52.0137 0 39.9999 0C27.9862 0 18.2124 9.77375 18.2124 21.7873C18.2124 29.2703 27.3035 45.715 34.9299 58.1927C36.0183 59.9734 37.9137 61.0366 39.9999 61.0366ZM31.2426 20.2914C31.2426 15.4628 35.1712 11.5344 39.9999 11.5344C44.8287 11.5344 48.7572 15.4628 48.7572 20.2914C48.7572 25.1202 44.8287 29.0486 39.9999 29.0486C35.1712 29.0486 31.2426 25.1203 31.2426 20.2914Z" fill="#253992"/>
</svg>
