<svg width="322" height="328" viewBox="0 0 322 328" fill="none" xmlns="http://www.w3.org/2000/svg">
<g clip-path="url(#clip0)">
<path fill-rule="evenodd" clip-rule="evenodd" d="M153.789 9.04438C193.4 13.9878 229.213 27.7832 257.403 55.8313C291.264 89.5219 327.282 128.541 321.343 175.753C314.886 227.084 273.521 265.446 227.888 290.469C178.217 317.707 115.766 345 67.9174 314.722C22.158 285.766 41.0159 218.55 30.6928 165.686C21.1552 116.844 -19.4654 64.3615 11.367 25.1268C42.276 -14.2055 103.912 2.81994 153.789 9.04438Z" fill="white"/>
<path d="M193.525 207.757H110.559C109.657 207.757 108.805 207.335 108.257 206.615C107.708 205.895 107.524 204.959 107.76 204.084L126.603 152.18C126.945 150.909 128.092 150.027 129.402 150.027H212.368C214.277 150.027 215.167 151.86 215.167 153.7L196.324 205.604C195.982 206.874 194.835 207.757 193.525 207.757Z" fill="#B2C8EA"/>
<path d="M187.964 207.757H110.559C109.657 207.757 108.805 207.335 108.257 206.615C107.708 205.895 107.524 204.959 107.76 204.084L126.603 152.18C126.945 150.909 128.092 150.027 129.402 150.027H206.807C208.716 150.027 209.606 151.86 209.606 153.7L190.763 205.604C190.421 206.874 189.274 207.757 187.964 207.757Z" fill="#CBDAF1"/>
<path d="M200.835 133.266H153.999L144.73 120.23H110.87C110.018 120.23 109.201 120.57 108.599 121.175C107.996 121.78 107.658 122.601 107.658 123.456V203.027C107.787 203.031 107.913 203.038 108.039 203.046L126.603 152.18C126.945 150.909 128.092 150.026 129.403 150.026H204.046V136.492C204.046 135.636 203.708 134.816 203.105 134.211C202.503 133.606 201.686 133.266 200.835 133.266Z" fill="#5C8ED1"/>
<path d="M195.274 133.266H153.999L144.73 120.23H110.87C110.018 120.23 109.201 120.57 108.599 121.175C107.996 121.78 107.658 122.601 107.658 123.456V203.027C107.787 203.031 107.913 203.038 108.039 203.046L126.603 152.18C126.945 150.909 128.092 150.026 129.403 150.026H198.485V136.492C198.485 135.636 198.147 134.816 197.544 134.211C196.942 133.606 196.125 133.266 195.274 133.266Z" fill="#B7CCEC"/>
<path d="M113.22 120.23H112.572C111.72 120.23 110.903 120.57 110.301 121.175C109.699 121.78 109.36 122.6 109.36 123.456V203.027C109.489 203.031 109.616 203.037 109.741 203.046L113.219 192.859V120.23H113.22Z" fill="white"/>
<path d="M193.525 209.619H110.56C109.08 209.619 107.684 208.927 106.784 207.746C105.885 206.565 105.584 205.031 105.971 203.596L124.862 151.541C125.46 149.526 127.31 148.15 129.403 148.164H212.368C215.064 148.164 217.021 150.492 217.021 153.7C217.021 153.918 216.983 154.134 216.909 154.338L198.066 206.242C197.468 208.257 195.617 209.633 193.525 209.619ZM129.402 151.889C128.93 151.89 128.517 152.208 128.392 152.665L109.501 204.722C109.47 204.996 109.552 205.271 109.729 205.482C109.924 205.745 110.233 205.898 110.56 205.895H193.525C193.997 205.894 194.411 205.576 194.535 205.118L213.298 153.415C213.252 152.906 213.072 151.889 212.368 151.889H129.402Z" fill="#132844"/>
<path d="M108.04 204.909C107.996 204.909 107.952 204.907 107.906 204.904L107.58 204.887C106.588 204.846 105.804 204.025 105.805 203.027V123.457C105.808 120.647 108.074 118.371 110.87 118.368H144.73C145.329 118.368 145.891 118.659 146.239 119.148L154.952 131.404H200.835C203.631 131.407 205.896 133.683 205.9 136.492V150.027C205.9 150.52 205.704 150.994 205.357 151.344C205.009 151.693 204.538 151.889 204.046 151.889H129.403C128.931 151.89 128.517 152.208 128.393 152.666L109.78 203.689C109.512 204.422 108.817 204.908 108.04 204.909ZM110.87 122.093C110.12 122.093 109.513 122.703 109.512 123.457V193.603L124.863 151.538C125.462 149.525 127.312 148.15 129.403 148.164H202.192V136.493C202.192 135.739 201.584 135.129 200.835 135.129H153.999C153.4 135.128 152.838 134.838 152.49 134.348L143.776 122.093H110.87Z" fill="#132844"/>
</g>
<defs>
<clipPath id="clip0">
<rect width="322" height="328" fill="white"/>
</clipPath>
</defs>
</svg>
