<svg width="80" height="80" viewBox="0 0 80 80" fill="none" xmlns="http://www.w3.org/2000/svg">
<g clip-path="url(#clip0)">
<path d="M78.4448 63.6129L69.576 57.6998L61.6919 52.4447C60.1703 51.4324 58.1255 51.7642 57.0023 53.2061L52.1237 59.4777C51.0758 60.8387 49.1906 61.2298 47.6878 60.3977C44.3776 58.5563 40.4631 56.8226 31.826 48.1744C23.1889 39.5263 21.4441 35.6229 19.6027 32.3126C18.7707 30.8098 19.1618 28.9247 20.5227 27.8769L26.7943 22.9983C28.236 21.8752 28.568 19.8304 27.5557 18.3087L22.462 10.6674L16.3876 1.55561C15.3537 0.00469068 13.284 -0.460929 11.6856 0.497654L4.68005 4.70042C2.78679 5.81587 1.39508 7.6171 0.793215 9.73067C-1.12254 16.7154 -1.50879 32.1235 23.1847 56.817C47.8781 81.5105 63.2848 81.123 70.2696 79.207C72.3832 78.6053 74.1844 77.2136 75.2999 75.3202L79.5026 68.3148C80.4613 66.7163 79.9957 64.6468 78.4448 63.6129Z" fill="#253992"/>
<path d="M72.2234 35.861V35.8616C72.2234 36.8996 71.3818 37.741 70.344 37.741C69.3062 37.741 68.465 36.8997 68.4647 35.8622C68.4506 23.1938 58.1843 12.9277 45.5161 12.9136C44.4784 12.9133 43.6373 12.072 43.6375 11.0344L72.2234 35.861ZM72.2234 35.861C72.2071 21.1185 60.2599 9.17127 45.5174 9.15503H45.5168M72.2234 35.861L45.5168 9.15503M45.5168 9.15503C44.479 9.15503 43.6375 9.99629 43.6375 11.0343L45.5168 9.15503Z" fill="#253992" stroke="#253992"/>
<path d="M62.9475 36.8615V36.861C62.9357 26.6871 54.6912 18.4424 44.5171 18.4307H44.5166C43.4788 18.4307 42.6372 19.272 42.6372 20.31C42.6372 21.3478 43.4782 22.1891 44.516 22.1894C52.6157 22.1989 59.1792 28.7626 59.1887 36.8621C59.1891 37.8997 60.0302 38.7409 61.0681 38.7409C62.1059 38.7409 62.9475 37.8996 62.9475 36.8615Z" fill="#253992" stroke="#253992"/>
<path d="M53.6719 37.8608V37.8613C53.6719 38.8994 52.8303 39.7407 51.7925 39.7407C50.7545 39.7407 49.9133 38.8993 49.9131 37.8616M53.6719 37.8608L50.4131 37.8613M53.6719 37.8608C53.6654 32.2553 49.1229 27.7127 43.5174 27.7063H43.5168M53.6719 37.8608L43.5168 27.7063M49.9131 37.8616C49.9131 37.8615 49.9131 37.8614 49.9131 37.8613H50.4131M49.9131 37.8616C49.9131 37.8617 49.9131 37.8618 49.9131 37.8619L50.4131 37.8613M49.9131 37.8616C49.9087 34.3305 47.0473 31.4691 43.5162 31.4649M50.4131 37.8613C50.4086 34.0544 47.3236 30.9694 43.5167 30.9649M43.5162 31.4649C43.5164 31.4649 43.5165 31.4649 43.5167 31.4649V30.9649M43.5162 31.4649C43.5162 31.4649 43.5161 31.4649 43.5161 31.4649L43.5167 30.9649M43.5162 31.4649C42.4785 31.4646 41.6373 30.6235 41.6375 29.5857L43.5167 30.9649M43.5168 27.7063C42.479 27.7063 41.6375 28.5476 41.6375 29.5856L43.5168 27.7063Z" fill="#253992" stroke="#253992"/>
</g>
<defs>
<clipPath id="clip0">
<rect width="80" height="80" fill="white"/>
</clipPath>
</defs>
</svg>
